<svg height="804" xmlns:xlink="http://www.w3.org/1999/xlink" xmlns="http://www.w3.org/2000/svg" xmlns:ev="http://www.w3.org/2001/xml-events" width="1133" viewBox="0 0 1133 804"><style type="text/css"><![CDATA[
.st2 {fill:#303030;font-family:Arial;font-size:10pt}
.st1 {fill:#303030;font-family:Arial;font-size:14pt}
]]></style><defs/><g transform="translate(5,5)" id="page1"><rect height="794" y="0" stroke="#808080" fill="#ffffff" x="0" width="1123"/><g transform="translate(298,230.35)" id="shape1"><path d="M503,290.5L503,2L2,2L2,290.5L503,290.5z" fill="#000000" fill-opacity="0.08"/><path stroke="#6d6d6d" d="M501,288.5L501,0L0,0L0,288.5L501,288.5z" fill="#30c9f7"/><text class="st1"><tspan y="126.7" x="206">dyn-switch</tspan><tspan y="149.7" x="153">subnet: 192.168.0.0/24</tspan><tspan y="172.7" x="109">ipv6_prefix: fdd6:8cf5:9dc2:c30a::</tspan></text></g><g transform="translate(350,478.88)" id="shape2"><path d="M70.5,41.9L70.5,2L2,2L2,41.9L70.5,41.9z" fill="#000000" fill-opacity="0.08"/><path stroke="#6d6d6d" d="M68.5,39.9L68.5,0L0,0L0,39.9L68.5,39.9z" fill="#000000"/></g><g transform="translate(643,477)" id="shape3"><path d="M68,43.8L68,2L2,2L2,43.8L68,43.8z" fill="#000000" fill-opacity="0.08"/><path stroke="#6d6d6d" d="M66,41.8L66,0L0,0L0,41.8L66,41.8z" fill="#000000"/></g><g transform="translate(227.56,524.5)" id="shape4"><text class="st2"><tspan y="3" x="142.2">port1</tspan><tspan y="18" x="122.2">192.168.0.2</tspan><tspan y="33" x="60.2">fdd6:8cf5:9dc2:c30a:800:ff:f300:1</tspan></text></g><g transform="translate(572.5,529.5)" id="shape5"><text class="st2"><tspan y="-2" x="89">port2</tspan><tspan y="13" x="69">192.168.0.3</tspan><tspan y="28" x="4">fdd6:8cf5:9dc2:c30a:2ac:ff:feff:101</tspan></text></g></g></svg>