<svg height="804" xmlns:xlink="http://www.w3.org/1999/xlink" xmlns="http://www.w3.org/2000/svg" xmlns:ev="http://www.w3.org/2001/xml-events" width="1133" viewBox="0 0 1133 804"><style type="text/css"><![CDATA[
.st1 {fill:#303030;font-family:Arial;font-size:10pt}
]]></style><defs><linearGradient x2="0%" y2="100%" id="lg1" x1="0%" y1="0%"><stop stop-color="#fbfbfb" offset="0"/><stop stop-color="#efefef" offset="1"/></linearGradient></defs><g transform="translate(5,5)" id="page1"><rect height="794" y="0" stroke="#808080" fill="#ffffff" x="0" width="1123"/><g transform="translate(307,302)" id="shape1"><path d="M134,78L134,2L2,2L2,78L134,78z" fill="#000000" fill-opacity="0.08"/><path stroke="#6d6d6d" d="M132,76L132,0L0,0L0,76L132,76z" fill="url(#lg1)"/><text class="st1"><tspan y="41.5" x="35">dyn-switch</tspan></text></g><g transform="translate(321,378)" id="shape2"><path d="M25,21L25,2L2,2L2,21L25,21z" fill="#000000" fill-opacity="0.08"/><path stroke="#6d6d6d" d="M23,19L23,0L0,0L0,19L23,19z" fill="url(#lg1)"/></g><g transform="translate(397,378)" id="shape3"><path d="M25,21L25,2L2,2L2,21L25,21z" fill="#000000" fill-opacity="0.08"/><path stroke="#6d6d6d" d="M23,19L23,0L0,0L0,19L23,19z" fill="url(#lg1)"/></g><g transform="translate(313.5,391)" id="shape4"><text class="st1"><tspan y="18" x="4">port1</tspan></text></g><g transform="translate(375.5,396)" id="shape5"><text class="st1"><tspan y="13" x="18">port2</tspan></text></g></g></svg>