<svg height="804" xmlns:xlink="http://www.w3.org/1999/xlink" xmlns="http://www.w3.org/2000/svg" xmlns:ev="http://www.w3.org/2001/xml-events" width="1133" viewBox="0 0 1133 804"><style type="text/css"><![CDATA[
.st2 {fill:#303030;font-family:Arial;font-size:10pt}
.st1 {fill:#303030;font-family:Arial;font-size:14pt}
]]></style><defs/><g transform="translate(5,5)" id="page1"><rect height="794" y="0" stroke="#808080" fill="#ffffff" x="0" width="1123"/><g transform="translate(298,230.35)" id="shape1"><path d="M503,290.5L503,2L2,2L2,290.5L503,290.5z" fill="#000000" fill-opacity="0.08"/><path stroke="#6d6d6d" d="M501,288.5L501,0L0,0L0,288.5L501,288.5z" fill="#30c9f7"/><text class="st1"><tspan y="149.7" x="206">dyn-switch</tspan></text></g><g transform="translate(350,478.88)" id="shape2"><path d="M70.5,41.9L70.5,2L2,2L2,41.9L70.5,41.9z" fill="#000000" fill-opacity="0.08"/><path stroke="#6d6d6d" d="M68.5,39.9L68.5,0L0,0L0,39.9L68.5,39.9z" fill="#000000"/></g><g transform="translate(643,477)" id="shape3"><path d="M68,43.8L68,2L2,2L2,43.8L68,43.8z" fill="#000000" fill-opacity="0.08"/><path stroke="#6d6d6d" d="M66,41.8L66,0L0,0L0,41.8L66,41.8z" fill="#000000"/></g><g transform="translate(365.25,509.5)" id="shape4"><text class="st2"><tspan y="18" x="4">port1</tspan></text></g><g transform="translate(643,514.5)" id="shape5"><text class="st2"><tspan y="13" x="18">port2</tspan></text></g></g></svg>