<svg xmlns:xlink="http://www.w3.org/1999/xlink" xmlns:ev="http://www.w3.org/2001/xml-events" width="1133" viewBox="0 0 1133 804" height="804" xmlns="http://www.w3.org/2000/svg"><style type="text/css"><![CDATA[
.st1 {fill:#303030;font-family:Arial;font-size:10pt}
]]></style><defs/><g transform="translate(5,5)" id="page1"><rect x="0" y="0" width="1123" fill="#ffffff" height="794" stroke="#808080"/><g transform="translate(217.68,146)" id="shape1"><path fill-opacity="0.08" d="M689.3,404.2C695.6,404.2,700.6,399.2,700.6,392.9L700.6,13.3C700.6,7.1,695.6,2,689.3,2L13.3,2C7.1,2,2,7.1,2,13.3L2,392.9C2,399.2,7.1,404.2,13.3,404.2L689.3,404.2z" fill="#000000"/><path d="M687.3,402.2C693.6,402.2,698.6,397.2,698.6,390.9L698.6,11.3C698.6,5.1,693.6,0,687.3,0L11.3,0C5.1,0,0,5.1,0,11.3L0,390.9C0,397.2,5.1,402.2,11.3,402.2L687.3,402.2z" fill="#30c9f7" stroke="#6d6d6d"/><text class="st1"><tspan x="318.3" y="204.6">dyn-switch</tspan></text></g><g transform="translate(378,501.24)" id="shape2"><path fill-opacity="0.08" d="M49,49L49,2L2,2L2,49L49,49z" fill="#000000"/><path d="M47,47L47,0L0,0L0,47L47,47z" fill="#000000" stroke="#6d6d6d"/></g><g transform="translate(695.76,501.35)" id="shape3"><path fill-opacity="0.08" d="M49,49L49,2L2,2L2,49L49,49z" fill="#000000"/><path d="M47,47L47,0L0,0L0,47L47,47z" fill="#000000" stroke="#6d6d6d"/></g><g transform="translate(378,553)" id="shape4"><text class="st1"><tspan x="11" y="20">port1</tspan></text></g><g transform="translate(688.76,558)" id="shape5"><text class="st1"><tspan x="16" y="15">port2</tspan></text></g></g></svg>