<svg width="1133" viewBox="0 0 1133 804" xmlns="http://www.w3.org/2000/svg" xmlns:xlink="http://www.w3.org/1999/xlink" xmlns:ev="http://www.w3.org/2001/xml-events" height="804"><style type="text/css"><![CDATA[
.st2 {fill:#303030;font-family:Arial;font-size:10pt}
.st1 {fill:#303030;font-family:Arial;font-size:18pt}
]]></style><defs/><g id="page1" transform="translate(5,5)"><rect width="1123" stroke="#808080" fill="#ffffff" y="0" height="794" x="0"/><g id="shape1" transform="translate(217.68,146)"><path fill="#000000" fill-opacity="0.08" d="M689.3,404.2C695.6,404.2,700.6,399.2,700.6,392.9L700.6,13.3C700.6,7.1,695.6,2,689.3,2L13.3,2C7.1,2,2,7.1,2,13.3L2,392.9C2,399.2,7.1,404.2,13.3,404.2L689.3,404.2z"/><path stroke="#6d6d6d" fill="#30c9f7" d="M687.3,402.2C693.6,402.2,698.6,397.2,698.6,390.9L698.6,11.3C698.6,5.1,693.6,0,687.3,0L11.3,0C5.1,0,0,5.1,0,11.3L0,390.9C0,397.2,5.1,402.2,11.3,402.2L687.3,402.2z"/><text class="st1"><tspan y="208.1" x="292.3">dyn-switch</tspan></text></g><g id="shape2" transform="translate(378,501.24)"><path fill="#000000" fill-opacity="0.08" d="M49,49L49,2L2,2L2,49L49,49z"/><path stroke="#6d6d6d" fill="#000000" d="M47,47L47,0L0,0L0,47L47,47z"/></g><g id="shape3" transform="translate(695.76,501.35)"><path fill="#000000" fill-opacity="0.08" d="M49,49L49,2L2,2L2,49L49,49z"/><path stroke="#6d6d6d" fill="#000000" d="M47,47L47,0L0,0L0,47L47,47z"/></g><g id="shape4" transform="translate(378,553)"><text class="st2"><tspan y="20" x="11">port1</tspan></text></g><g id="shape5" transform="translate(688.76,558)"><text class="st2"><tspan y="15" x="16">port2</tspan></text></g></g></svg>